<svg width="96" height="96" viewBox="0 0 96 96" fill="none" xmlns="http://www.w3.org/2000/svg">
<g opacity="0.2">
<path fill-rule="evenodd" clip-rule="evenodd" d="M24.6682 26.1213C23.4966 24.9497 23.4966 23.0503 24.6682 21.8787C25.8398 20.7071 27.7393 20.7071 28.9108 21.8787L48.0003 40.9681L67.0896 21.8788C68.2612 20.7072 70.1607 20.7072 71.3323 21.8788C72.5038 23.0503 72.5038 24.9498 71.3323 26.1214L50.2244 47.2292C50.192 47.2649 50.1585 47.3 50.124 47.3345C49.551 47.9076 48.8037 48.2004 48.0526 48.2128C47.2667 48.2271 46.4762 47.9344 45.8764 47.3346C45.8413 47.2995 45.8073 47.2638 45.7743 47.2274L24.6682 26.1213ZM24.6682 50.1213C23.4966 48.9497 23.4966 47.0503 24.6682 45.8787C25.8398 44.7071 27.7393 44.7071 28.9108 45.8787L48.0003 64.9681L67.0896 45.8788C68.2612 44.7072 70.1607 44.7072 71.3323 45.8788C72.5038 47.0503 72.5038 48.9498 71.3323 50.1214L50.2244 71.2292C50.192 71.2649 50.1585 71.3 50.124 71.3345C49.551 71.9076 48.8037 72.2004 48.0526 72.2128C47.2667 72.2271 46.4762 71.9344 45.8764 71.3346C45.8413 71.2995 45.8073 71.2638 45.7743 71.2274L24.6682 50.1213Z" fill="#20B7F8"/>
</g>
</svg>
