<svg width="146" height="149" viewBox="0 0 146 149" fill="none" xmlns="http://www.w3.org/2000/svg">
  <path d="M145.04 70.72V92.8H106.48C110.213 100.373 115.12 106.987 121.2 112.64C127.387 118.293 135.013 123.093 144.08 127.04L130.16 148.16C113.627 139.307 100.773 127.2 91.6 111.84C88.08 118.347 83.3333 124.587 77.36 130.56C71.4933 136.427 63.9733 142.507 54.8 148.8L41.2 132.16V147.36H19.76V0.799995H41.2V25.76L55.28 34.88V20.32H78.64L78.8 0.799995H101.2V20.32H136.24V70.72H145.04ZM0.0800004 77.92C1.25333 71.2 2.21333 64 2.96 56.32C3.70667 48.5333 4.50667 38.7733 5.36 27.04L19.28 28.48L18.32 40.8C18.1067 42.9333 17.6267 48.7467 16.88 58.24C16.24 67.6267 15.44 75.2 14.48 80.96L0.0800004 77.92ZM41.2 128.8C50.3733 123.253 57.68 117.6 63.12 111.84C68.6667 106.08 72.6667 99.7333 75.12 92.8H47.92V70.72H78.64V70.56V41.6H61.68L51.76 59.36C50.16 58.08 46.64 55.52 41.2 51.68V128.8ZM114.32 41.6H101.2L100.88 69.28V70.72H114.32V41.6Z" fill="url(#paint0_linear_5590_89101)"/>
  <defs>
    <linearGradient id="paint0_linear_5590_89101" x1="74" y1="-31" x2="74" y2="181" gradientUnits="userSpaceOnUse">
      <stop stop-color="#AFEFFE"/>
      <stop offset="1" stop-color="#AFEFFE" stop-opacity="0"/>
    </linearGradient>
  </defs>
</svg>
