<svg width="148" height="148" viewBox="0 0 148 148" fill="none" xmlns="http://www.w3.org/2000/svg">
  <path d="M62.12 117.6L48.52 119.52V148H27.4V122.72L2.76 126.24L0.68 104.64L27.4 100.96V86.08H1.48V64.8C4.57333 58.8267 8.14667 49.8133 12.2 37.76H1.64V17.92H18.44C20.4667 10.56 21.96 4.79999 22.92 0.639997L42.28 4.32C41.2133 9.22666 40.0933 13.76 38.92 17.92H61.32V37.76H33C29.16 49.8133 26.0667 59.2 23.72 65.92H31.88V44.8H48.52V65.92H60.04V86.08H48.52V97.92L60.36 96.32L62.12 117.6ZM57.32 56.32C66.92 52.9067 76.0933 48.64 84.84 43.52C93.6933 38.2933 100.893 33.0133 106.44 27.68H66.12V6.39999H135.56V26.72C130.333 32.6933 125.053 38.0267 119.72 42.72C120.467 43.1467 121.32 43.68 122.28 44.32C123.24 44.8533 124.36 45.4933 125.64 46.24C128.733 48.16 132.52 50.5067 137 53.28C141.587 55.9467 145 57.9733 147.24 59.36L135.72 78.24C129.107 73.76 117.96 66.56 102.28 56.64C92.36 63.68 81.32 70.08 69.16 75.84L57.32 56.32ZM139.56 100.8H113.32V121.92H145.48V143.04H59.4V121.92H90.44V100.8H65.16V79.36H139.56V100.8Z" fill="url(#paint0_linear_5590_89102)"/>
  <defs>
    <linearGradient id="paint0_linear_5590_89102" x1="73" y1="-31" x2="73" y2="181" gradientUnits="userSpaceOnUse">
      <stop stop-color="#AFEFFE"/>
      <stop offset="1" stop-color="#AFEFFE" stop-opacity="0"/>
    </linearGradient>
  </defs>
</svg>
