<svg width="182" height="29" viewBox="0 0 182 29" fill="none" xmlns="http://www.w3.org/2000/svg">
<path fill-rule="evenodd" clip-rule="evenodd" d="M21.3796 9.73629C21.1856 14.1632 19.3495 25.6663 11.9692 25.6663C5.64494 25.6663 5.26226 18.4387 7.20034 16.0652C6.55698 18.6347 8.08171 22.1142 12.0292 21.6615C15.5607 21.2561 19.1329 16.3686 19.4129 9.66962L16.4221 10.3057L20.6149 3L24.0004 10.4223L21.3796 9.73629ZM11.2987 13.8358C8.21188 11.3391 4.67839 10.849 3.00232 12.1444C1.0209 13.6765 1.93361 15.9099 3.40234 16.782C1.44225 16.5673 -1.70522 13.1518 1.13624 10.371C4.21704 7.35755 9.70661 10.907 12.1707 12.9531L13.0561 11.4551L14.9428 16.2786L9.70395 14.8392L11.2987 13.8358Z" fill="#20B7F8"/>
<path d="M45.776 7.8L54.704 11.376L55.496 9L45.8 5.112L36.104 9L36.896 11.376L45.776 7.8ZM52.808 18.864H50.12V21.48H47.144V17.64H54.2V15.288H47.144V13.056H52.736V10.728H38.864V13.056H44.456V15.288H37.4V17.64H44.456V21.48H41.48V18.864H38.792V21.48H36.344V23.808H55.256V21.48H52.808V18.864ZM73.6494 6.864V20.976H68.7534V5.136H66.0654V20.976H61.2174V6.864H58.5294V23.304H76.3374V6.864H73.6494ZM98.1388 10.704H90.3628V10.152H97.1788V8.4H90.3628V7.848H97.6588V5.856H90.3628V5.136H87.6748V5.856H80.3788V7.848H87.6748V8.4H80.8588V10.152H87.6748V10.704H79.8988V12.696H98.1388V10.704ZM98.6908 18.456V16.536H96.5788V13.272H81.6748V16.536H79.6588V18.456H81.6748V21.72H93.8908V22.224H88.8748V23.952H96.5788V21.72H98.1628V19.92H96.5788V18.456H98.6908ZM84.3628 15.072H87.4348L86.8828 15.768L88.1548 16.536H84.3628V15.072ZM93.8908 16.536H90.3387L90.7948 15.936L89.3788 15.072H93.8908V16.536ZM84.3628 18.456H87.3628L86.8828 19.08L88.2508 19.92H84.3628V18.456ZM93.8908 19.92H90.2908L90.7948 19.248L89.4988 18.456H93.8908V19.92ZM119.916 7.608H111.972V7.032H119.532V5.28H101.724V7.032H109.284V7.608H101.364V12.624H104.052V9.336H109.284V12.696H111.972V9.336H117.228V12.624H119.916V7.608ZM108.516 9.744H104.7V10.824H108.516V9.744ZM116.46 9.744H112.62V10.824H116.46V9.744ZM104.7 12.288H108.516V11.208H104.7V12.288ZM112.62 12.288H116.46V11.208H112.62V12.288ZM107.628 20.832H111.06V17.4H107.628V16.92H110.292V15.096H111.636V13.512H110.292V13.032H107.82V13.512H104.724V13.032H102.252V13.512H100.932V15.096H102.252V16.92H104.94V17.4H101.484V20.832H104.94V21.432H101.052V23.016H104.94V23.976H107.628V23.016H111.516V21.432H107.628V20.832ZM112.26 13.2V19.56L111.54 23.688L114.06 23.976L114.588 20.736H117.156V21.72H115.596V23.736H119.676V13.2H112.26ZM104.724 15.096H107.82V15.576H104.724V15.096ZM117.156 16.128H114.78V15.216H117.156V16.128ZM117.156 18.912H114.78V17.952H117.156V18.912ZM103.812 18.768H105.228V19.464H103.812V18.768ZM108.732 19.464H107.34V18.768H108.732V19.464Z" fill="#20B7F8"/>
<rect x="130" y="3" width="52" height="22" rx="4" fill="url(#paint0_linear_5207_92754)"/>
<path d="M142.658 10.768V11.566H148.23V12.518H135.798V11.566H141.342V10.768H136.946V9.844H141.342V9.088H136.358V8.15H141.342V7.142H142.658V8.15H147.67V9.088H142.658V9.844H147.082V10.768H142.658ZM137.38 19.882V13.316H146.634V18.3C146.634 18.7107 146.583 19.0233 146.48 19.238C146.387 19.4527 146.219 19.6067 145.976 19.7C145.743 19.7933 145.397 19.84 144.94 19.84H143.078L142.882 18.79H144.59C144.917 18.79 145.127 18.748 145.22 18.664C145.323 18.5707 145.374 18.384 145.374 18.104V17.74H138.654V19.882H137.38ZM145.374 15.094V14.254H138.654V15.094H145.374ZM138.654 15.99V16.844H145.374V15.99H138.654ZM161.656 16.76C160.965 16.424 160.363 16.0833 159.85 15.738V19.98H158.562V19.336H153.298V20.008H152.01V15.78C151.459 16.1627 150.881 16.5407 150.274 16.914L149.644 15.724C150.409 15.2947 151.063 14.8747 151.604 14.464C152.155 14.044 152.621 13.6007 153.004 13.134H149.938V12.084H153.732C153.872 11.8227 154.017 11.524 154.166 11.188H150.904V10.138H154.544C154.647 9.79267 154.726 9.49867 154.782 9.256H150.386V8.206H155.006C155.043 8.01 155.095 7.64133 155.16 7.1L156.546 7.114C156.509 7.394 156.457 7.758 156.392 8.206H161.502V9.256H156.21C156.126 9.62933 156.051 9.92333 155.986 10.138H160.998V11.188H155.664C155.524 11.5333 155.393 11.832 155.272 12.084H161.964V13.134H158.772C159.145 13.6193 159.617 14.058 160.186 14.45C160.755 14.8327 161.455 15.1967 162.286 15.542L161.656 16.76ZM154.67 13.134C154.418 13.5167 154.119 13.8853 153.774 14.24H158.142C157.881 13.9507 157.596 13.582 157.288 13.134H154.67ZM153.298 16.284H158.562V15.276H153.298V16.284ZM153.298 17.292V18.314H158.562V17.292H153.298ZM173.906 16.844C174.447 17.5253 175.213 18.1833 176.202 18.818L175.474 19.952C174.522 19.252 173.752 18.538 173.164 17.81C172.52 18.5753 171.657 19.336 170.574 20.092L169.79 19.028C170.891 18.2907 171.769 17.5393 172.422 16.774C171.694 15.5793 171.171 14.0953 170.854 12.322H170.756C170.756 13.47 170.705 14.4453 170.602 15.248C170.499 16.0413 170.327 16.788 170.084 17.488C169.841 18.1787 169.491 18.93 169.034 19.742L168.152 18.93V19.812H166.962V15.066H165.842C165.805 16.1673 165.716 17.1007 165.576 17.866C165.445 18.6313 165.226 19.3733 164.918 20.092L163.784 19.378C164.036 18.8367 164.223 18.2953 164.344 17.754C164.465 17.2127 164.545 16.5827 164.582 15.864C164.629 15.1453 164.652 14.17 164.652 12.938V7.506H165.87V11.132H166.892V7.268H168.082V11.132H168.922V12.294H165.87V13.358V13.834H168.152V18.734C168.703 17.782 169.071 16.8347 169.258 15.892C169.454 14.9493 169.552 13.7033 169.552 12.154V8.332C170.504 8.276 171.521 8.16867 172.604 8.01C173.687 7.85133 174.727 7.66 175.726 7.436L175.964 8.766C175.171 8.934 174.307 9.09267 173.374 9.242C172.45 9.39133 171.577 9.508 170.756 9.592V11.048H175.656V12.336C175.451 13.2787 175.208 14.114 174.928 14.842C174.648 15.57 174.307 16.2373 173.906 16.844ZM171.974 12.322C172.282 13.7127 172.679 14.8513 173.164 15.738C173.733 14.8047 174.149 13.666 174.41 12.322H171.974Z" fill="white"/>
<defs>
<linearGradient id="paint0_linear_5207_92754" x1="130" y1="20.3412" x2="175.854" y2="3.5543" gradientUnits="userSpaceOnUse">
<stop stop-color="#2AECD5"/>
<stop offset="1" stop-color="#0BC9F2"/>
</linearGradient>
</defs>
</svg>
