<svg width="145" height="149" viewBox="0 0 145 149" fill="none" xmlns="http://www.w3.org/2000/svg">
  <path d="M144.84 68.56V86.48H138.28V114.32H110.28V129.2C110.28 136.453 108.68 141.467 105.48 144.24C102.387 147.12 96.9467 148.56 89.16 148.56H76.2L72.84 130.32H84.68C86.92 130.32 88.52 130.16 89.48 129.84C90.5467 129.52 91.1867 128.987 91.4 128.24C91.72 127.387 91.88 126 91.88 124.08V114.32H71.08V96.56H91.88V86.48H68.84V68.56H91.88V58.16H73.32V42.96L65.16 35.76C74.76 23.7067 82.0667 11.8667 87.08 0.23999L106.6 2.64L103.56 9.67999H130.92V26L120.36 40.08H138.28V68.56H144.84ZM63.08 45.04H44.84V50.8H68.04V65.68H0.68V50.8H25.48V45.04H6.28V31.6H25.48V26.32H2.76V11.44H25.48V2.15999H44.84V11.44H66.92V26.32H44.84V31.6H63.08V45.04ZM108.2 27.76H93.8C90.6 32.56 87.72 36.6667 85.16 40.08H98.12L108.2 27.76ZM120.36 58.16H110.28V68.56H120.36V58.16ZM5.8 148.56V71.44H63.4V132.4C63.4 138.267 62.1733 142.373 59.72 144.72C57.3733 147.173 53.32 148.4 47.56 148.4H34.28L30.6 131.6H41.32C43.1333 131.6 44.2533 131.387 44.68 130.96C45.1067 130.427 45.32 129.36 45.32 127.76V125.04H23.88V148.56H5.8ZM45.32 92.08V86.16H23.88V92.08H45.32ZM110.28 96.56H120.36V86.48H110.28V96.56ZM23.88 105.2V111.6H45.32V105.2H23.88Z" fill="url(#paint0_linear_5590_89098)"/>
  <defs>
    <linearGradient id="paint0_linear_5590_89098" x1="73" y1="-29" x2="73" y2="183" gradientUnits="userSpaceOnUse">
      <stop stop-color="#AFEFFE"/>
      <stop offset="1" stop-color="#AFEFFE" stop-opacity="0"/>
    </linearGradient>
  </defs>
</svg>
