<svg width="140" height="151" viewBox="0 0 140 151" fill="none" xmlns="http://www.w3.org/2000/svg">
  <path d="M70.12 78H131.72V150.32H109.48V144.4H37.16V150.32H14.92V86.64L11.56 88.08L1.96 69.84C15.08 65.68 24.0933 60.08 29 53.04H1.8V36.08H13.32L0.68 27.12C4.30667 23.0667 7.56 18.6933 10.44 14C13.4267 9.30666 15.8267 4.77333 17.64 0.399998L37.16 3.27999C36.3067 5.73332 35.3467 8.07999 34.28 10.32H75.08V26.8H54.92L54.76 30.8C54.76 32.8267 54.7067 34.16 54.6 34.8V36.08H78.28V53.04H57.64C67.7733 58.0533 74.9733 61.8933 79.24 64.56L70.12 78ZM82.28 70.8V10.16H139.88V70.8H82.28ZM34.28 36.08V35.6C34.4933 34.1067 34.6 31.1733 34.6 26.8H25.16C22.3867 31.0667 20.3067 34.16 18.92 36.08H34.28ZM102.28 52.24H119.56V28.4H102.28V52.24ZM45.8 67.12C42.6 71.0667 38.28 74.6933 32.84 78H63.24C56.6267 73.6267 50.8133 70 45.8 67.12ZM37.16 103.76H109.48V95.6H37.16V103.76ZM37.16 118.48V126.64H109.48V118.48H37.16Z" fill="url(#paint0_linear_5590_89100)"/>
  <defs>
    <linearGradient id="paint0_linear_5590_89100" x1="73" y1="-29" x2="73" y2="183" gradientUnits="userSpaceOnUse">
      <stop stop-color="#AFEFFE"/>
      <stop offset="1" stop-color="#AFEFFE" stop-opacity="0"/>
    </linearGradient>
  </defs>
</svg>
